<?xml version="1.0" encoding="UTF-8" standalone="no"?>
<!-- Created with Inkscape (http://www.inkscape.org/) -->

<svg
   xmlns:dc="http://purl.org/dc/elements/1.1/"
   xmlns:cc="http://creativecommons.org/ns#"
   xmlns:rdf="http://www.w3.org/1999/02/22-rdf-syntax-ns#"
   xmlns:svg="http://www.w3.org/2000/svg"
   xmlns="http://www.w3.org/2000/svg"
   xmlns:sodipodi="http://sodipodi.sourceforge.net/DTD/sodipodi-0.dtd"
   xmlns:inkscape="http://www.inkscape.org/namespaces/inkscape"
   width="297mm"
   height="210mm"
   viewBox="0 0 297 210"
   version="1.1"
   id="svg8"
   inkscape:version="0.92.2 2405546, 2018-03-11"
   sodipodi:docname="libresat-logo.svg"
   inkscape:export-filename="/home/pojntfx/opensdcp-logo-2.png"
   inkscape:export-xdpi="328.38571"
   inkscape:export-ydpi="328.38571">
  <defs
     id="defs2" />
  <sodipodi:namedview
     id="base"
     pagecolor="#ffffff"
     bordercolor="#666666"
     borderopacity="1.0"
     inkscape:pageopacity="0.0"
     inkscape:pageshadow="2"
     inkscape:zoom="1.4"
     inkscape:cx="393.56115"
     inkscape:cy="458.79124"
     inkscape:document-units="mm"
     inkscape:current-layer="layer1"
     showgrid="true"
     inkscape:snap-bbox="true"
     inkscape:bbox-nodes="true"
     inkscape:snap-bbox-midpoints="true"
     inkscape:snap-bbox-edge-midpoints="true"
     inkscape:bbox-paths="true"
     inkscape:object-paths="true"
     inkscape:snap-intersection-paths="true"
     inkscape:snap-smooth-nodes="true"
     inkscape:snap-midpoints="true"
     inkscape:snap-object-midpoints="true"
     inkscape:snap-others="true"
     inkscape:snap-nodes="true"
     inkscape:snap-center="true"
     inkscape:snap-text-baseline="true"
     inkscape:snap-page="true"
     showguides="true"
     inkscape:window-width="3840"
     inkscape:window-height="2096"
     inkscape:window-x="0"
     inkscape:window-y="27"
     inkscape:window-maximized="1">
    <inkscape:grid
       type="xygrid"
       id="grid4717" />
  </sodipodi:namedview>
  <metadata
     id="metadata5">
    <rdf:RDF>
      <cc:Work
         rdf:about="">
        <dc:format>image/svg+xml</dc:format>
        <dc:type
           rdf:resource="http://purl.org/dc/dcmitype/StillImage" />
        <dc:title></dc:title>
      </cc:Work>
    </rdf:RDF>
  </metadata>
  <g
     inkscape:groupmode="layer"
     id="layer2"
     inkscape:label="Layer 2"
     transform="translate(0,-87)" />
  <g
     inkscape:label="Layer 1"
     inkscape:groupmode="layer"
     id="layer1"
     transform="translate(0,-87)">
    <flowRoot
       xml:space="preserve"
       id="flowRoot3713"
       style="font-style:normal;font-weight:normal;font-size:53.12136841px;line-height:1.25;font-family:sans-serif;letter-spacing:0px;word-spacing:0px;fill:#000000;fill-opacity:1;stroke:none"
       transform="matrix(0.31876689,0,0,0.31876689,55.856084,37.338374)"><flowRegion
         id="flowRegion3715"
         style="font-size:53.12136841px"><rect
           id="rect3717"
           width="405"
           height="162.14285"
           x="256.42856"
           y="456.80539"
           style="font-size:53.12136841px" /></flowRegion><flowPara
         id="flowPara3719"
         style="font-style:normal;font-variant:normal;font-weight:normal;font-stretch:normal;font-size:53.12136841px;font-family:Pacifico;-inkscape-font-specification:Pacifico">LibreSat</flowPara></flowRoot>    <path
       style="fill:none;stroke:#000000;stroke-width:0.69999999;stroke-linecap:butt;stroke-linejoin:miter;stroke-miterlimit:4;stroke-dasharray:none;stroke-opacity:1"
       d="m 130.72052,177.97533 v 27.07883"
       id="path4630"
       inkscape:connector-curvature="0" />
    <g
       id="g4715"
       transform="matrix(1.2047882,0,0,1.2047882,-20.60283,-39.423793)"
       inkscape:export-xdpi="3264.8374"
       inkscape:export-ydpi="3264.8374">
      <path
         sodipodi:nodetypes="ssssssssssssccssssscscsssssssscssssscc"
         style="fill:currentColor;stroke-width:0.03874937"
         inkscape:connector-curvature="0"
         d="m 98.984691,191.70386 c 1.367859,0 2.479959,-1.11211 2.479959,-2.47996 0,-1.36785 -1.1121,-2.47996 -2.479959,-2.47996 -1.36785,0 -2.479962,1.11211 -2.479962,2.47996 0,1.36785 1.112112,2.47996 2.479962,2.47996 z m 17.359719,0 c 1.36785,0 2.47997,-1.11211 2.47997,-2.47996 0,-1.36785 -1.11212,-2.47996 -2.47997,-2.47996 -1.36785,0 -2.47996,1.11211 -2.47996,2.47996 0,1.36785 1.11211,2.47996 2.47996,2.47996 z m 1.23998,1.23998 h -2.47995 c -0.682,0 -1.29811,0.27512 -1.7476,0.72074 1.5616,0.85636 2.66983,2.40246 2.91007,4.23918 h 2.55747 c 0.68586,0 1.23997,-0.55411 1.23997,-1.23998 v -1.23998 c 0,-1.36786 -1.1121,-2.47996 -2.47996,-2.47996 z m -6.94389,1.23998 h -0.32162 c -0.80598,0.38749 -1.7011,0.61999 -2.65432,0.61999 -0.95324,0 -1.84448,-0.2325 -2.65434,-0.61999 h -0.32162 c -2.46446,0 -4.46393,1.99947 -4.46393,4.46393 v 1.11598 c 0,1.02685 0.83312,1.85997 1.85997,1.85997 h 11.15983 c 1.02685,0 1.85997,-0.83312 1.85997,-1.85997 v -1.11598 c 0,-2.46446 -1.99947,-4.46393 -4.46394,-4.46393 z m -8.66823,-0.51924 c -0.4495,-0.44562 -1.06561,-0.72074 -1.7476,-0.72074 h -2.479957 c -1.367857,0 -2.479963,1.1121 -2.479963,2.47996 v 1.23998 c 0,0.68587 0.554116,1.23998 1.239978,1.23998 h 2.553587 c 0.244123,-1.83672 1.352355,-3.38282 2.913955,-4.23918 z"
         id="path3721" />
      <circle
         style="fill:#000000;fill-opacity:0;stroke:#000000;stroke-width:0.83002138;stroke-miterlimit:4;stroke-dasharray:none;stroke-opacity:1"
         r="6.3779068"
         cy="188.48891"
         cx="107.66455"
         id="path3745" />
      <circle
         r="0.96875834"
         cy="183.98953"
         cx="112.16393"
         id="path4554"
         style="fill:#000000;fill-opacity:1;stroke:#000000;stroke-width:0.81682235;stroke-miterlimit:4;stroke-dasharray:none;stroke-opacity:1" />
      <path
         style="fill:currentColor;stroke-width:0.01814267"
         inkscape:connector-curvature="0"
         d="m 107.66456,183.98953 c -2.48501,0 -4.49939,2.01439 -4.49939,4.49939 0,2.48501 2.01438,4.49939 4.49939,4.49939 2.485,0 4.49938,-2.01438 4.49938,-4.49939 0,-2.485 -2.01438,-4.49939 -4.49938,-4.49939 z m 1.49295,6.48782 c -0.0708,0.0704 -0.14496,0.14424 -0.20519,0.20466 -0.0542,0.0544 -0.0925,0.12155 -0.11194,0.1943 -0.0274,0.10264 -0.0495,0.20646 -0.0865,0.30607 l -0.3155,0.84998 c -0.24964,0.0544 -0.508,0.0851 -0.77378,0.0851 v -0.49675 c 0.0306,-0.22896 -0.13861,-0.65786 -0.41057,-0.92982 -0.10886,-0.10882 -0.17,-0.25654 -0.17,-0.41056 v -0.58075 c 0,-0.21118 -0.11376,-0.40531 -0.29863,-0.50745 -0.26071,-0.14423 -0.63154,-0.3458 -0.88555,-0.4737 -0.20827,-0.10489 -0.40095,-0.2384 -0.57421,-0.39461 l -0.0145,-0.0131 a 2.0826345,2.0826345 0 0 1 -0.32765,-0.37627 c -0.17018,-0.24983 -0.4474,-0.66077 -0.62756,-0.92782 0.37138,-0.8255 1.04066,-1.48843 1.87232,-1.84856 l 0.43561,0.2179 c 0.19304,0.0965 0.42018,-0.0437 0.42018,-0.25963 v -0.20501 c 0.14497,-0.0233 0.29247,-0.0383 0.44251,-0.0439 l 0.51343,0.51343 c 0.11339,0.11339 0.11339,0.29718 0,0.41057 l -0.0851,0.0849 -0.18759,0.1876 c -0.0566,0.0566 -0.0566,0.14859 0,0.2052 l 0.0851,0.0851 c 0.0566,0.0566 0.0566,0.14858 0,0.20519 l -0.14514,0.14515 a 0.14528658,0.14528658 0 0 1 -0.10269,0.0425 h -0.1631 c -0.0377,0 -0.074,0.0147 -0.10124,0.0412 l -0.17997,0.17509 a 0.14528658,0.14528658 0 0 0 -0.0287,0.1689 l 0.28285,0.56587 c 0.0482,0.0966 -0.022,0.21009 -0.12972,0.21009 h -0.10233 c -0.035,0 -0.0688,-0.0127 -0.0951,-0.0356 l -0.16837,-0.14624 a 0.29059131,0.29059131 0 0 0 -0.28212,-0.0563 l -0.5655,0.18851 a 0.21680502,0.21680502 0 0 0 -0.14823,0.20573 c 0,0.0822 0.0465,0.15711 0.11992,0.19395 l 0.20102,0.10051 c 0.17073,0.0855 0.35905,0.1299 0.54991,0.1299 0.19086,0 0.40984,0.49512 0.58057,0.58057 h 1.21102 c 0.15403,0 0.30153,0.0611 0.41057,0.17 l 0.24837,0.24837 a 0.55340615,0.55340615 0 0 1 0.16201,0.39134 0.84428778,0.84428778 0 0 1 -0.24891,0.59834 z m 1.57316,-1.65733 c -0.10505,-0.0263 -0.19667,-0.0907 -0.25672,-0.18088 l -0.32621,-0.48931 a 0.43488006,0.43488006 0 0 1 0,-0.48295 l 0.35542,-0.53303 c 0.0421,-0.063 0.0998,-0.11413 0.16763,-0.14788 l 0.2355,-0.11774 c 0.24529,0.4884 0.3868,1.03776 0.3868,1.62069 0,0.1573 -0.0134,0.31133 -0.033,0.46336 z"
         id="path3732" />
    </g>
    <path
       style="fill:none;stroke:#000000;stroke-width:0.89999998;stroke-linecap:butt;stroke-linejoin:miter;stroke-miterlimit:4;stroke-dasharray:none;stroke-opacity:1"
       d="M 0,169.68541 H 297"
       id="path4765"
       inkscape:connector-curvature="0"
       sodipodi:nodetypes="cc" />
    <path
       style="fill:none;stroke:#000000;stroke-width:0.89999998;stroke-linecap:butt;stroke-linejoin:miter;stroke-miterlimit:4;stroke-dasharray:none;stroke-opacity:1"
       d="M 0,214.31458 H 297"
       id="path4767"
       inkscape:connector-curvature="0" />
  </g>
</svg>
